<?xml version="1.0" encoding="utf-8"?>
<!-- Generator: Adobe Illustrator 16.0.0, SVG Export Plug-In . SVG Version: 6.00 Build 0)  -->
<!DOCTYPE svg PUBLIC "-//W3C//DTD SVG 1.1//EN" "http://www.w3.org/Graphics/SVG/1.1/DTD/svg11.dtd">
<svg version="1.1" id="Layer_1" xmlns="http://www.w3.org/2000/svg" xmlns:xlink="http://www.w3.org/1999/xlink" x="0px" y="0px"
	 width="360px" height="115px" viewBox="0 0 360 115" enable-background="new 0 0 360 115" xml:space="preserve">
<g>
	<polygon fill="#FFFFFF" points="159.882,76.547 18.343,76.547 18.343,67.255 0.66,67.255 0.66,76.547 0.66,84.938 0.66,94.23 
		95.355,94.23 95.355,102.49 113.039,102.49 113.039,94.23 159.882,94.23 	"/>
	<g>
		<path fill="#FFFFFF" d="M187.055,76.82h2.146v7.355h0.049c0.34-0.609,0.876-1.146,1.53-1.511c0.636-0.365,1.393-0.61,2.193-0.61
			c1.582,0,4.118,0.977,4.118,5.045v7.016h-2.146v-6.771c0-1.902-0.704-3.511-2.729-3.511c-1.388,0-2.483,0.976-2.877,2.144
			c-0.116,0.295-0.146,0.61-0.146,1.024v7.112h-2.143V76.82H187.055z"/>
		<path fill="#FFFFFF" d="M211.251,88.123c0,4.357-3.019,6.26-5.871,6.26c-3.19,0-5.653-2.34-5.653-6.066
			c0-3.944,2.584-6.262,5.852-6.262C208.961,82.055,211.251,84.516,211.251,88.123z M201.896,88.244c0,2.582,1.482,4.529,3.58,4.529
			c2.047,0,3.584-1.924,3.584-4.578c0-1.998-1.004-4.529-3.533-4.529C202.992,83.666,201.896,86.002,201.896,88.244z"/>
		<path fill="#FFFFFF" d="M213.96,76.82h2.147v17.295h-2.147V76.82z"/>
		<path fill="#FFFFFF" d="M219.716,76.82h2.142v17.295h-2.142V76.82z"/>
		<path fill="#FFFFFF" d="M226.657,88.613c0.06,2.896,1.905,4.088,4.048,4.088c1.533,0,2.463-0.266,3.271-0.605l0.354,1.535
			c-0.748,0.344-2.047,0.73-3.914,0.73c-3.632,0-5.804-2.389-5.804-5.945s2.101-6.359,5.525-6.359c3.855,0,4.881,3.387,4.881,5.56
			c0,0.438-0.061,0.776-0.084,1h-8.279L226.657,88.613L226.657,88.613z M232.953,87.076c0.023-1.367-0.571-3.483-2.975-3.483
			c-2.166,0-3.117,1.996-3.287,3.483H232.953z"/>
		<path fill="#FFFFFF" d="M237.68,85.516c0-1.219-0.021-2.217-0.095-3.188h1.905l0.117,1.946h0.049
			c0.582-1.119,1.949-2.219,3.893-2.219c1.643,0,4.165,0.978,4.165,5.021v7.039h-2.146v-6.797c0-1.9-0.698-3.484-2.727-3.484
			c-1.415,0-2.512,1-2.865,2.193c-0.107,0.268-0.154,0.635-0.154,0.996v7.092h-2.143V85.516L237.68,85.516z"/>
		<path fill="#FFFFFF" d="M251.105,94.115c0.061-0.801,0.104-1.996,0.104-3.043V76.82h2.12v7.402h0.049
			c0.748-1.312,2.118-2.168,4.021-2.168c2.918,0,4.988,2.438,4.965,6.021c0,4.213-2.652,6.307-5.283,6.307
			c-1.704,0-3.071-0.657-3.952-2.217h-0.069l-0.097,1.948h-1.856V94.115z M253.332,89.391c0,0.269,0.049,0.536,0.096,0.779
			c0.416,1.484,1.655,2.51,3.213,2.51c2.237,0,3.584-1.828,3.584-4.531c0-2.362-1.216-4.388-3.514-4.388
			c-1.463,0-2.82,1.001-3.26,2.634c-0.049,0.241-0.119,0.535-0.119,0.875V89.391L253.332,89.391z"/>
		<path fill="#FFFFFF" d="M266.271,88.613c0.058,2.896,1.899,4.088,4.045,4.088c1.535,0,2.463-0.266,3.272-0.605l0.354,1.535
			c-0.748,0.344-2.045,0.73-3.914,0.73c-3.633,0-5.797-2.389-5.797-5.945s2.096-6.359,5.522-6.359c3.854,0,4.882,3.387,4.882,5.56
			c0,0.438-0.062,0.776-0.087,1h-8.278V88.613L266.271,88.613z M272.566,87.076c0.021-1.367-0.57-3.483-2.977-3.483
			c-2.169,0-3.117,1.996-3.283,3.483H272.566z"/>
		<path fill="#FFFFFF" d="M285.693,93.68c-0.56,0.293-1.797,0.682-3.379,0.682c-3.561,0-5.869-2.413-5.869-6.018
			c0-3.631,2.478-6.266,6.334-6.266c1.262,0,2.379,0.316,2.964,0.609l-0.479,1.658c-0.511-0.293-1.318-0.562-2.484-0.562
			c-2.702,0-4.168,2-4.168,4.461c0,2.729,1.752,4.412,4.098,4.412c1.213,0,2.009-0.32,2.629-0.588L285.693,93.68z"/>
		<path fill="#FFFFFF" d="M290.337,87.732h0.05c0.282-0.412,0.7-0.924,1.047-1.338l3.465-4.068h2.568l-4.545,4.85l5.188,6.939
			h-2.606l-4.07-5.652l-1.097,1.221v4.437h-2.118V76.822h2.118V87.732L290.337,87.732z"/>
		<path fill="#FFFFFF" d="M299.479,92.848c0-0.899,0.606-1.535,1.466-1.535c0.848,0,1.432,0.636,1.432,1.535
			c0,0.879-0.562,1.535-1.465,1.535C300.061,94.383,299.479,93.727,299.479,92.848z"/>
		<path fill="#FFFFFF" d="M305.037,86.173c0-1.511-0.049-2.729-0.106-3.849h1.931l0.096,2.021h0.046
			c0.881-1.438,2.275-2.294,4.202-2.294c2.847,0,4.986,2.415,4.986,5.995c0,4.239-2.58,6.333-5.355,6.333
			c-1.558,0-2.928-0.68-3.629-1.853h-0.049v6.406h-2.118L305.037,86.173L305.037,86.173z M307.155,89.314
			c0,0.318,0.049,0.611,0.095,0.881c0.395,1.482,1.68,2.506,3.216,2.506c2.262,0,3.583-1.85,3.583-4.555
			c0-2.361-1.239-4.387-3.513-4.387c-1.465,0-2.821,1.047-3.237,2.657c-0.07,0.267-0.144,0.582-0.144,0.88V89.314z"/>
		<path fill="#FFFFFF" d="M318.903,76.82h2.143v17.295h-2.143V76.82z"/>
		<path fill="#FFFFFF" d="M331.188,94.115l-0.163-1.482h-0.07c-0.655,0.926-1.93,1.752-3.609,1.752
			c-2.391,0-3.604-1.684-3.604-3.387c0-2.852,2.533-4.409,7.095-4.387v-0.242c0-0.975-0.274-2.729-2.69-2.729
			c-1.096,0-2.234,0.34-3.066,0.875l-0.479-1.412c0.966-0.635,2.382-1.049,3.871-1.049c3.604,0,4.485,2.461,4.485,4.824v4.409
			c0,1.021,0.049,2.024,0.188,2.825h-1.956V94.115z M330.878,88.1c-2.346-0.05-4.999,0.361-4.999,2.654
			c0,1.389,0.93,2.047,2.024,2.047c1.536,0,2.51-0.977,2.844-1.975c0.084-0.221,0.131-0.463,0.131-0.686V88.1z"/>
		<path fill="#FFFFFF" d="M338.901,78.938v3.39h3.066v1.631h-3.066v6.358c0,1.461,0.4,2.291,1.604,2.291
			c0.562,0,0.979-0.073,1.239-0.147l0.096,1.61c-0.405,0.171-1.071,0.291-1.893,0.291c-1,0-1.812-0.317-2.321-0.901
			c-0.606-0.633-0.82-1.683-0.82-3.069v-6.433h-1.835v-1.631h1.835V79.5L338.901,78.938z"/>
		<path fill="#FFFFFF" d="M354.91,88.123c0,4.357-3.022,6.26-5.882,6.26c-3.188,0-5.644-2.34-5.644-6.066
			c0-3.944,2.582-6.262,5.847-6.262C352.613,82.055,354.91,84.516,354.91,88.123z M345.554,88.244c0,2.582,1.487,4.529,3.583,4.529
			c2.047,0,3.571-1.924,3.571-4.578c0-1.998-0.986-4.529-3.522-4.529C346.65,83.666,345.554,86.002,345.554,88.244z"/>
	</g>
</g>
<rect y="5.098" fill="none" width="254.5" height="28.5"/>
<g enable-background="new    ">
	<path fill="#FFFFFF" d="M1.918,5.142h3.619L10.9,20.909l5.325-15.768h3.594V23.79h-2.412V12.784c0-0.381,0.008-1.012,0.025-1.892
		s0.025-1.824,0.025-2.831L12.132,23.79H9.629L4.254,8.062v0.571c0,0.457,0.013,1.153,0.038,2.088
		c0.025,0.936,0.038,1.623,0.038,2.063v11.007H1.918V5.142z"/>
	<path fill="#FFFFFF" d="M23.881,5.142h13.533v2.285h-11.07v5.662h10.232v2.158H26.344v6.322h11.261v2.222H23.881V5.142z"/>
	<path fill="#FFFFFF" d="M41.553,5.142h2.552v18.649h-2.552V5.142z"/>
	<path fill="#FFFFFF" d="M48.51,5.142h8.478c1.396,0,2.547,0.207,3.453,0.622c1.72,0.796,2.58,2.264,2.58,4.405
		c0,1.117-0.23,2.031-0.692,2.742c-0.461,0.711-1.106,1.282-1.936,1.714c0.728,0.296,1.275,0.686,1.645,1.168
		c0.367,0.482,0.573,1.266,0.615,2.349l0.089,2.501c0.025,0.711,0.085,1.24,0.178,1.587c0.152,0.593,0.423,0.974,0.812,1.143v0.419
		h-3.098c-0.085-0.161-0.152-0.368-0.203-0.622c-0.051-0.254-0.093-0.745-0.127-1.473l-0.152-3.11
		c-0.058-1.219-0.497-2.035-1.319-2.45c-0.47-0.229-1.205-0.343-2.208-0.343h-5.588v7.998H48.51V5.142z M56.715,13.686
		c1.152,0,2.064-0.237,2.735-0.711c0.671-0.474,1.006-1.329,1.006-2.564c0-1.329-0.469-2.234-1.407-2.717
		c-0.502-0.254-1.173-0.381-2.013-0.381h-6v6.373H56.715z"/>
	<path fill="#FFFFFF" d="M67.223,5.142h13.533v2.285h-11.07v5.662h10.232v2.158H69.686v6.322h11.261v2.222H67.223V5.142z
		 M75.64,3.669H73.9L70.498,0h2.831L75.64,3.669z"/>
	<path fill="#FFFFFF" d="M94.276,5.142v11.527c0,1.354,0.256,2.479,0.768,3.377c0.76,1.354,2.039,2.031,3.839,2.031
		c2.158,0,3.626-0.732,4.402-2.196c0.418-0.796,0.627-1.866,0.627-3.212V5.142h2.552v10.474c0,2.294-0.31,4.059-0.93,5.294
		c-1.139,2.251-3.287,3.377-6.446,3.377c-3.159,0-5.304-1.126-6.434-3.377c-0.62-1.235-0.93-3-0.93-5.294V5.142H94.276z"/>
	<path fill="#FFFFFF" d="M110.323,5.142h2.976L122.6,20.21V5.142h2.412v18.649h-2.838l-9.438-15.05v15.05h-2.412L110.323,5.142
		L110.323,5.142z"/>
	<path fill="#FFFFFF" d="M129.214,5.142h7.454c2.531,0,4.493,0.91,5.889,2.729c1.244,1.642,1.866,3.745,1.866,6.31
		c0,1.98-0.367,3.771-1.103,5.37c-1.295,2.827-3.521,4.24-6.678,4.24h-7.429L129.214,5.142L129.214,5.142z M136.173,21.633
		c0.835,0,1.522-0.089,2.061-0.267c0.96-0.33,1.746-0.965,2.358-1.904c0.488-0.753,0.84-1.718,1.055-2.895
		c0.124-0.702,0.187-1.354,0.187-1.955c0-2.311-0.449-4.104-1.347-5.383c-0.898-1.278-2.345-1.917-4.339-1.917h-4.382v14.32
		L136.173,21.633L136.173,21.633z"/>
	<path fill="#FFFFFF" d="M155.036,5.142h3.619l5.362,15.768l5.325-15.768h3.594v18.649h-2.412V12.784
		c0-0.381,0.009-1.012,0.025-1.892c0.016-0.88,0.025-1.824,0.025-2.831L165.25,23.79h-2.504l-5.375-15.729v0.571
		c0,0.457,0.013,1.153,0.038,2.088c0.025,0.936,0.038,1.623,0.038,2.063V23.79h-2.412L155.036,5.142L155.036,5.142z"/>
	<path fill="#FFFFFF" d="M176.999,5.142h13.533v2.285h-11.07v5.662h10.231v2.158h-10.231v6.322h11.261v2.222h-13.724V5.142
		L176.999,5.142z"/>
	<path fill="#FFFFFF" d="M194.671,5.142h2.552v18.649h-2.552V5.142z"/>
	<path fill="#FFFFFF" d="M201.628,5.142h8.478c1.396,0,2.547,0.207,3.453,0.622c1.721,0.796,2.58,2.264,2.58,4.405
		c0,1.117-0.229,2.031-0.691,2.742c-0.461,0.711-1.106,1.282-1.936,1.714c0.727,0.296,1.274,0.686,1.645,1.168
		c0.367,0.482,0.572,1.266,0.615,2.349l0.088,2.501c0.025,0.711,0.086,1.24,0.179,1.587c0.151,0.593,0.423,0.974,0.812,1.143v0.419
		h-3.098c-0.085-0.161-0.152-0.368-0.203-0.622s-0.093-0.745-0.127-1.473l-0.152-3.11c-0.058-1.219-0.496-2.035-1.318-2.45
		c-0.471-0.229-1.205-0.343-2.208-0.343h-5.589v7.998h-2.525L201.628,5.142L201.628,5.142z M209.833,13.686
		c1.151,0,2.063-0.237,2.735-0.711c0.67-0.474,1.006-1.329,1.006-2.564c0-1.329-0.469-2.234-1.407-2.717
		c-0.502-0.254-1.173-0.381-2.013-0.381h-6v6.373H209.833z"/>
	<path fill="#FFFFFF" d="M220.341,5.142h13.533v2.285h-11.069v5.662h10.231v2.158h-10.231v6.322h11.26v2.222h-13.724V5.142
		L220.341,5.142z M228.758,3.669h-1.738L223.616,0h2.831L228.758,3.669z"/>
</g>
</svg>
