<?xml version="1.0" encoding="UTF-8" standalone="no"?>
<svg width="100px" height="28px" viewBox="0 0 100 28" version="1.1" xmlns="http://www.w3.org/2000/svg" xmlns:xlink="http://www.w3.org/1999/xlink" xmlns:sketch="http://www.bohemiancoding.com/sketch/ns">
    <!-- Generator: Sketch 3.0.4 (8053) - http://www.bohemiancoding.com/sketch -->
    <title>uedc-logo</title>
    <desc>Created with Sketch.</desc>
    <defs></defs>
    <g id="Page-1" stroke="none" stroke-width="1" fill="none" fill-rule="evenodd" sketch:type="MSPage">
        <g id="uedc-logo" sketch:type="MSLayerGroup">
            <g id="Group" fill="#C11920" sketch:type="MSShapeGroup">
                <path d="M80.4290123,9.6744 C78.395679,7.56688 75.9978395,6.54 73.1825617,6.54 C70.3152778,6.54 67.9175926,7.56688 65.8842593,9.6744 C63.9030864,11.72848 62.8609568,14.26864 62.8609568,17.24112 C62.8609568,20.16016 63.9030864,22.70064 65.8842593,24.808 C67.9175926,26.86192 70.3152778,27.88896 73.1825617,27.88896 C75.9978395,27.88896 78.395679,26.86192 80.4290123,24.808 C82.0449074,23.1328 83.0354938,21.13264 83.3479938,18.91664 L78.708642,18.91664 C78.4475309,19.83552 77.978858,20.70048 77.2489198,21.45728 C76.1018519,22.64608 74.7466049,23.18656 73.1825617,23.18656 C71.5665123,23.18656 70.1591049,22.64608 69.012037,21.45728 C67.9175926,20.32208 67.3438272,18.86304 67.396142,17.24112 C67.3438272,15.56608 67.9175926,14.16064 69.012037,12.97152 C70.1591049,11.78288 71.5666667,11.188 73.1825617,11.24192 C74.7466049,11.18784 76.1018519,11.78288 77.2489198,12.97152 C77.9262346,13.72816 78.395679,14.53872 78.6561728,15.40384 L83.3479938,15.40384 C82.983179,13.24176 82.0449074,11.29616 80.4290123,9.6744 L80.4290123,9.6744 Z" id="Shape"></path>
                <path d="M55.8753086,7.35056 C54.5720679,6.756 53.1648148,6.43168 51.7050926,6.43168 C48.8382716,6.43168 46.4393519,7.45872 44.4066358,9.5664 C42.4256173,11.62016 41.3828704,14.1608 41.3828704,17.13312 C41.3828704,20.16016 42.4256173,22.64624 44.4066358,24.75456 C46.4393519,26.80816 48.8382716,27.88896 51.7050926,27.88896 C54.5720679,27.88896 57.0222222,26.80816 59.0550926,24.75456 C61.0361111,22.64608 62.078858,20.16016 62.078858,17.13312 L62.078858,0 L57.5432099,0 L57.5432099,17.13312 C57.5432099,18.8088 56.9697531,20.21392 55.8751543,21.40352 C54.6762346,22.59264 53.3208333,23.18656 51.7049383,23.18656 C50.0888889,23.18656 48.733179,22.59264 47.5868827,21.40352 C46.4921296,20.21392 45.9182099,18.8088 45.9182099,17.13312 C45.9182099,15.51232 46.4921296,14.05232 47.5868827,12.9176 C48.7333333,11.72832 50.0890432,11.13424 51.7049383,11.13424 C53.3726852,11.13424 54.7280864,11.72848 55.8751543,12.9176 L55.8751543,7.35056 L55.8753086,7.35056 Z" id="Shape"></path>
                <path d="M40.7572531,10.864 C39.0891975,8.48576 36.795216,7.02656 34.0325617,6.5936 C31.2171296,6.10736 28.6631173,6.756 26.3689815,8.48576 C24.0231481,10.21504 22.6677469,12.53952 22.1990741,15.404 C21.7299383,18.32272 22.3552469,21.02512 24.0233025,23.40304 C25.691821,25.83552 27.9334877,27.29456 30.7484568,27.72736 C33.5631173,28.1592 36.1179012,27.56496 38.4637346,25.83552 C39.6101852,24.91664 40.5490741,23.83568 41.3308642,22.48448 L38.0987654,18.05216 C37.8901235,19.728 37.1601852,21.02512 35.804784,21.99776 C34.5018519,23.02464 33.0419753,23.40304 31.4780864,23.0792 C29.8618827,22.80896 28.6104938,21.99776 27.6725309,20.64688 C26.7341049,19.34992 26.4216049,17.83616 26.6822531,16.16064 C26.8904321,14.53888 27.6725309,13.24176 28.9756173,12.21504 C30.6959877,10.97168 32.4686728,10.70176 34.2930556,11.40448 C34.449537,11.45824 34.5016975,11.5664 34.6058642,11.67472 C34.8665123,12.05312 34.7103395,12.37696 34.2930556,12.7552 L27.6725309,17.728 L30.3311728,21.5112 L40.2884259,14.05232 C41.4353395,13.13392 41.5915123,12.10656 40.7572531,10.864 L40.7572531,10.864 Z" id="Shape"></path>
                <path d="M21.0518519,6.48544 L16.5688272,6.48544 L16.5688272,17.02528 C16.5169753,18.7552 15.9953704,20.16032 14.7962963,21.40368 C13.6493827,22.5928 12.2419753,23.18672 10.5739198,23.18672 C8.95787037,23.18672 7.49799383,22.5928 6.35138889,21.40368 C5.15231481,20.16032 4.57885802,18.7552 4.57885802,17.02528 L4.57885802,6.48544 L0.0435185185,6.48544 L0.0435185185,17.02528 C0.0435185185,19.99824 1.08611111,22.5928 3.1712963,24.70032 C5.25648148,26.80848 7.7066358,27.88928 10.5739198,27.88928 C13.4929012,27.88928 15.9953704,26.80848 18.0285494,24.70032 C20.0612654,22.5928 21.0518519,19.9984 21.0518519,17.02528 L21.0518519,6.48544 L21.0518519,6.48544 Z" id="Shape"></path>
            </g>
            <path d="M87.808642,0 L88.3624795,0 L88.3624795,1.74890625 C88.4869617,1.58046791 88.6357052,1.45195357 88.8087143,1.36335937 C88.9817235,1.27476518 89.1694989,1.23046875 89.3720462,1.23046875 C89.7940198,1.23046875 90.1363407,1.38085787 90.3990192,1.68164062 C90.6616978,1.98242338 90.7930351,2.42593457 90.7930351,3.0121875 C90.7930351,3.56781528 90.6632801,4.02937316 90.4037664,4.396875 C90.1442527,4.76437684 89.7845256,4.948125 89.3245744,4.948125 C89.0671705,4.948125 88.8498574,4.8835944 88.6726285,4.75453125 C88.5671351,4.67796837 88.4542589,4.55546959 88.3339964,4.38703125 L88.3339964,4.8365625 L87.808642,4.8365625 L87.808642,0 Z M89.9812675,4.04578125 C90.1342329,3.79202998 90.2107145,3.45734583 90.2107145,3.04171875 C90.2107145,2.6720294 90.1342329,2.36578246 89.9812675,2.12296875 C89.8283021,1.88015504 89.6030771,1.75875 89.3055857,1.75875 C89.046072,1.75875 88.8187371,1.85828025 88.6235743,2.05734375 C88.4284116,2.25640725 88.3308316,2.58452896 88.3308316,3.04171875 C88.3308316,3.3720329 88.3709185,3.63999897 88.4510935,3.845625 C88.6008941,4.23281444 88.8804474,4.42640625 89.2897618,4.42640625 C89.5978025,4.42640625 89.8283021,4.29953252 89.9812675,4.04578125 Z M93.5685523,1.41914062 C93.7943081,1.53617246 93.9662598,1.68765532 94.0844124,1.87359375 C94.1983452,2.05078214 94.2742993,2.25749882 94.312277,2.49375 C94.3460348,2.65562581 94.3629135,2.91374823 94.3629135,3.268125 L91.8785566,3.268125 C91.889106,3.62468928 91.9703346,3.91070205 92.1222451,4.12617187 C92.2741556,4.3416417 92.5094023,4.449375 92.8279924,4.449375 C93.1254837,4.449375 93.3628403,4.34765727 93.5400692,4.14421875 C93.6413429,4.02609316 93.7130773,3.88937578 93.7552746,3.7340625 L94.3154417,3.7340625 C94.3006727,3.86312565 94.251619,4.00695233 94.1682792,4.16554687 C94.0849394,4.32414142 93.9915792,4.4537495 93.8881957,4.554375 C93.7151865,4.72937588 93.5010381,4.84749969 93.2457441,4.90875 C93.1086027,4.94375017 92.9535298,4.96125 92.7805206,4.96125 C92.358547,4.96125 92.0009298,4.80211097 91.7076582,4.48382812 C91.4143866,4.16554528 91.2677529,3.71984662 91.2677529,3.14671875 C91.2677529,2.58234093 91.4154415,2.12406426 91.710823,1.771875 C92.0062045,1.41968574 92.3923045,1.24359375 92.8691346,1.24359375 C93.1096595,1.24359375 93.3427964,1.30210879 93.5685523,1.41914062 Z M93.7774281,2.79890625 C93.7542196,2.54296747 93.7004188,2.33843827 93.6160241,2.1853125 C93.4598938,1.90093608 93.1993291,1.75875 92.834322,1.75875 C92.5726983,1.75875 92.3532754,1.85663965 92.1760465,2.05242187 C91.9988176,2.2482041 91.9049299,2.49702974 91.8943805,2.79890625 L93.7774281,2.79890625 Z M95.1762635,0.34125 L95.7522545,0.34125 L95.7522545,1.32234375 L96.2934329,1.32234375 L96.2934329,1.8046875 L95.7522545,1.8046875 L95.7522545,4.09828125 C95.7522545,4.22078186 95.7923414,4.30281229 95.8725164,4.344375 C95.9168236,4.36843762 95.9906679,4.38046875 96.0940514,4.38046875 C96.1214797,4.38046875 96.1510174,4.37992188 96.1826654,4.37882813 C96.2143134,4.37773437 96.2512356,4.37500002 96.2934329,4.370625 L96.2934329,4.8365625 C96.228027,4.8562501 96.1599848,4.87046871 96.0893042,4.87921875 C96.0186237,4.88796879 95.9421421,4.89234375 95.8598573,4.89234375 C95.5940139,4.89234375 95.4136229,4.82179758 95.3186789,4.68070312 C95.2237348,4.53960867 95.1762635,4.35640738 95.1762635,4.13109375 L95.1762635,1.8046875 L94.7173696,1.8046875 L94.7173696,1.32234375 L95.1762635,1.32234375 L95.1762635,0.34125 Z M98.6796815,2.70703125 C98.8104933,2.68953116 98.8980515,2.63265673 98.9423587,2.53640625 C98.9676771,2.48390599 98.9803361,2.40843799 98.9803361,2.31 C98.9803361,2.10874899 98.911239,1.96273483 98.7730427,1.87195313 C98.6348463,1.78117142 98.4370492,1.73578125 98.1796453,1.73578125 C97.8821539,1.73578125 97.6711703,1.81890542 97.5466881,1.98515625 C97.4770625,2.07703171 97.431701,2.21374909 97.4106023,2.3953125 L96.8789183,2.3953125 C96.8894676,1.96218533 97.0250246,1.66086022 97.2855933,1.49132812 C97.546162,1.32179603 97.848396,1.23703125 98.1923044,1.23703125 C98.5910695,1.23703125 98.9149293,1.31578046 99.1638937,1.47328125 C99.4107482,1.63078204 99.5341737,1.87577959 99.5341737,2.20828125 L99.5341737,4.2328125 C99.5341737,4.29406281 99.5463052,4.34328106 99.5705687,4.38046875 C99.5948322,4.41765644 99.6459957,4.43625 99.7240608,4.43625 C99.7493792,4.43625 99.777862,4.43460939 99.80951,4.43132812 C99.841158,4.42804686 99.8749154,4.42312503 99.9107832,4.4165625 L99.9107832,4.85296875 C99.8221687,4.87921888 99.754654,4.89562497 99.7082369,4.9021875 C99.6618198,4.90875003 99.5985247,4.91203125 99.5183497,4.91203125 C99.322132,4.91203125 99.1797181,4.83984447 99.0911036,4.69546875 C99.0446865,4.61890587 99.0119841,4.5106257 98.9929953,4.370625 C98.8769525,4.52812579 98.7102755,4.66484317 98.4929591,4.78078125 C98.2756427,4.89671933 98.0361763,4.9546875 97.7745527,4.9546875 C97.4601824,4.9546875 97.2033099,4.85570411 97.0039273,4.65773437 C96.8045448,4.45976464 96.7048551,4.21203274 96.7048551,3.91453125 C96.7048551,3.58859212 96.8029625,3.3359384 96.9991802,3.1565625 C97.1953979,2.9771866 97.4527979,2.86671896 97.7713879,2.82515625 L98.6796815,2.70703125 Z M97.4802276,4.305 C97.6004901,4.40343799 97.742904,4.45265625 97.9074737,4.45265625 C98.1079112,4.45265625 98.3020161,4.40453173 98.4897943,4.30828125 C98.8062745,4.14859295 98.9645122,3.88718932 98.9645122,3.5240625 L98.9645122,3.04828125 C98.8948866,3.09421898 98.8052185,3.13249985 98.6955054,3.163125 C98.5857923,3.19375015 98.4781906,3.21562493 98.3726972,3.22875 L98.0277356,3.2746875 C97.8209685,3.30312514 97.6658956,3.34796844 97.5625121,3.40921875 C97.387393,3.51203176 97.2998348,3.67609262 97.2998348,3.90140625 C97.2998348,4.0720321 97.3599652,4.20656201 97.4802276,4.305 Z" id="beta" fill="#BDC3C7" sketch:type="MSShapeGroup"></path>
        </g>
    </g>
</svg>