<?xml version="1.0" encoding="UTF-8" standalone="no"?>
<svg width="350px" height="114px" viewBox="0 0 350 114" version="1.1" xmlns="http://www.w3.org/2000/svg" xmlns:xlink="http://www.w3.org/1999/xlink" xmlns:sketch="http://www.bohemiancoding.com/sketch/ns">
    <!-- Generator: Sketch 3.0.4 (8053) - http://www.bohemiancoding.com/sketch -->
    <title>Imported Layers</title>
    <desc>Created with Sketch.</desc>
    <defs></defs>
    <g id="Page-1" stroke="none" stroke-width="1" fill="none" fill-rule="evenodd" sketch:type="MSPage">
        <g id="Imported-Layers" sketch:type="MSLayerGroup" transform="translate(1.000000, 1.000000)" fill="#000000">
            <path d="M240.681,-0.46 L259.6,-0.46 C259.644,0.543 259.717,1.434 259.717,2.325 C259.723,24.736 259.608,47.147 259.767,69.557 C259.851,81.414 255.506,91.336 247.336,99.593 C242.216,104.768 236.13,108.558 228.94,110.498 C224.269,111.759 219.606,112.534 214.778,112.325 C205.295,111.914 196.868,108.81 189.41,102.857 C183.314,97.992 178.892,91.912 175.93,84.824 C173.405,78.784 173.205,72.318 173.375,65.83 C173.66,54.905 178.189,45.857 185.68,38.246 C190.789,33.055 196.798,29.202 203.982,27.232 C209.298,25.775 214.66,24.875 220.082,25.584 C224.261,26.13 228.346,27.437 232.438,28.537 C232.966,28.679 233.637,29.604 233.641,30.171 C233.689,36.998 233.625,43.826 233.576,50.653 C233.575,50.781 233.404,50.907 233.539,50.72 C230.546,49.145 227.716,47.339 224.652,46.123 C220.595,44.513 216.468,44.001 211.94,45.029 C206.382,46.291 202.018,48.924 198.247,53.044 C194.7,56.919 192.814,61.374 192.428,66.572 C191.791,75.142 194.515,82.268 201.315,87.684 C207.246,92.407 213.705,94.313 221.402,92.625 C229.029,90.953 234.399,86.613 238.096,80.147 C239.537,77.625 240.472,74.439 240.5,71.544 C240.716,48.719 240.656,25.892 240.681,3.065 C240.682,1.993 240.681,0.92 240.681,-0.46" id="Fill-1" sketch:type="MSShapeGroup"></path>
            <path d="M126.778,86.485 C123.048,81.364 119.379,76.324 115.586,71.115 C124.663,64.619 133.448,58.411 142.118,52.046 C143.457,51.063 145.038,49.402 145.11,47.984 C145.185,46.513 143.269,45.627 141.44,45.121 C133.121,42.821 125.971,44.943 119.598,50.388 C112.279,56.641 110.173,64.907 111.713,73.921 C112.969,81.268 117.616,86.751 124.191,90.283 C128.036,92.349 132.285,93.439 136.702,93.316 C145.333,93.077 155.325,86.161 158.453,77.177 C158.886,75.932 159.118,74.617 159.625,72.617 C164.183,78.66 168.277,83.997 172.217,89.444 C172.637,90.025 172.493,91.483 172.043,92.154 C166.379,100.6 158.948,106.98 149.211,110.159 C143.645,111.976 137.803,112.858 131.883,112.219 C115.728,110.472 104.086,102.269 96.492,87.899 C92.018,79.434 91.483,70.413 92.795,61.428 C94.474,49.921 100.547,40.705 110.128,33.874 C115.631,29.951 121.5,27.228 128.275,26.199 C145.42,23.593 159.219,29.347 170.06,42.538 C174.223,47.605 173.443,53.062 167.933,56.947 C154.913,66.125 142.134,75.643 129.248,85.012 C128.596,85.486 127.86,85.845 126.778,86.485" id="Fill-2" sketch:type="MSShapeGroup"></path>
            <path d="M348.558,76.194 C347.663,93.009 329.793,111.574 308.448,112.415 C282.613,113.434 262.52,92.265 263.159,67.713 C263.724,46.014 283.201,24.479 309.383,25.977 C330.942,27.21 348.244,47.544 348.466,61.54 C346.664,61.54 344.862,61.541 343.059,61.54 C339.144,61.54 335.228,61.515 331.313,61.55 C329.822,61.563 329.09,61.109 328.432,59.537 C325.275,51.995 316.914,45.147 307.576,45.094 C299.125,45.047 292.387,47.67 287.183,54.282 C284.467,57.733 282.686,61.531 282.459,66.01 C282.149,72.096 282.481,77.939 286.423,83.089 C290.165,87.978 294.737,91.226 300.869,92.555 C311.229,94.798 319.355,91.479 325.756,83.349 C326.841,81.97 327.986,80.455 328.454,78.817 C329.097,76.565 330.337,76.113 332.422,76.157 C337.73,76.268 343.043,76.194 348.558,76.194" id="Fill-3" sketch:type="MSShapeGroup"></path>
            <path d="M87.601,51.888 C87.601,58.966 87.759,66.049 87.562,73.122 C87.302,82.447 83.401,90.346 77.376,97.291 C72.318,103.124 66.179,107.641 58.892,109.974 C51.683,112.282 44.238,113.176 36.506,111.62 C30.658,110.443 25.238,108.61 20.347,105.318 C12.085,99.757 5.722,92.65 2.411,83.024 C0.539,77.584 -0.274,72.022 -0.301,66.331 C-0.359,53.753 -0.269,41.174 -0.362,28.597 C-0.38,26.177 0.445,25.382 2.821,25.459 C7.231,25.602 11.654,25.612 16.063,25.452 C18.199,25.374 18.765,26.132 18.754,28.155 C18.689,41.149 18.589,54.145 18.762,67.137 C18.907,78.034 23.831,86.371 33.726,91.036 C38.416,93.248 43.53,93.935 49.064,92.694 C57.636,90.773 63.459,85.906 66.934,78.251 C68.409,75.002 69.192,71.182 69.266,67.601 C69.536,54.612 69.432,41.613 69.322,28.62 C69.3,26.103 70,25.298 72.567,25.438 C76.803,25.669 81.063,25.595 85.307,25.458 C87.226,25.396 87.753,26.118 87.742,27.898 C87.688,35.895 87.718,43.891 87.718,51.888 L87.601,51.888" id="Fill-4" sketch:type="MSShapeGroup"></path>
        </g>
    </g>
</svg>